<mxfile host="65bd71144e">
    <diagram id="7-J2zzYAVmp0Lr06Mmti" name="Page-1">
        <mxGraphModel dx="1700" dy="1951" grid="0" gridSize="10" guides="1" tooltips="1" connect="1" arrows="1" fold="1" page="1" pageScale="1" pageWidth="827" pageHeight="1169" background="#000000" math="0" shadow="0">
            <root>
                <mxCell id="0"/>
                <mxCell id="1" parent="0"/>
                <mxCell id="15" value="" style="edgeStyle=none;html=1;" edge="1" parent="1" source="2" target="14">
                    <mxGeometry relative="1" as="geometry"/>
                </mxCell>
                <mxCell id="2" value="게임 시작" style="whiteSpace=wrap;html=1;" vertex="1" parent="1">
                    <mxGeometry x="-807" y="-1094" width="120" height="60" as="geometry"/>
                </mxCell>
                <mxCell id="6" value="" style="edgeStyle=none;html=1;" edge="1" parent="1" target="5">
                    <mxGeometry relative="1" as="geometry">
                        <mxPoint x="-747" y="-908.0000000000001" as="sourcePoint"/>
                    </mxGeometry>
                </mxCell>
                <mxCell id="18" value="" style="edgeStyle=none;html=1;" edge="1" parent="1" source="5" target="17">
                    <mxGeometry relative="1" as="geometry"/>
                </mxCell>
                <mxCell id="37" style="edgeStyle=none;html=1;entryX=0.5;entryY=1;entryDx=0;entryDy=0;" edge="1" parent="1" source="5" target="35">
                    <mxGeometry relative="1" as="geometry">
                        <Array as="points">
                            <mxPoint x="-563" y="-787"/>
                        </Array>
                    </mxGeometry>
                </mxCell>
                <mxCell id="5" value="2명 이상인가?" style="rhombus;html=1;container=0;dropTarget=0;collapsible=0;movableLabel=0;backgroundOutline=0;treeFolding=0;treeMoving=0;comic=0;whiteSpace=wrap;" vertex="1" parent="1">
                    <mxGeometry x="-799.5" y="-840" width="105" height="105" as="geometry"/>
                </mxCell>
                <mxCell id="8" value="No" style="text;html=1;strokeColor=none;fillColor=none;align=center;verticalAlign=middle;whiteSpace=wrap;comic=0;" vertex="1" parent="1">
                    <mxGeometry x="-642" y="-779" width="40" height="20" as="geometry"/>
                </mxCell>
                <mxCell id="14" value="게임 참여 인원수 선택" style="whiteSpace=wrap;html=1;comic=0;" vertex="1" parent="1">
                    <mxGeometry x="-807" y="-967" width="120" height="60" as="geometry"/>
                </mxCell>
                <mxCell id="23" value="" style="edgeStyle=none;html=1;" edge="1" parent="1" source="17" target="22">
                    <mxGeometry relative="1" as="geometry"/>
                </mxCell>
                <mxCell id="17" value="처음 사람이 단어를 말한다." style="whiteSpace=wrap;html=1;comic=0;" vertex="1" parent="1">
                    <mxGeometry x="-807" y="-668" width="120" height="60" as="geometry"/>
                </mxCell>
                <mxCell id="19" value="Yes" style="text;html=1;strokeColor=none;fillColor=none;align=center;verticalAlign=middle;whiteSpace=wrap;comic=0;" vertex="1" parent="1">
                    <mxGeometry x="-742" y="-719" width="40" height="20" as="geometry"/>
                </mxCell>
                <mxCell id="25" value="" style="edgeStyle=none;html=1;" edge="1" parent="1" source="22" target="24">
                    <mxGeometry relative="1" as="geometry"/>
                </mxCell>
                <mxCell id="22" value="다음 사람이 단어를 말한다." style="whiteSpace=wrap;html=1;comic=0;" vertex="1" parent="1">
                    <mxGeometry x="-807" y="-528" width="120" height="60" as="geometry"/>
                </mxCell>
                <mxCell id="26" style="edgeStyle=none;html=1;entryX=1;entryY=0.5;entryDx=0;entryDy=0;" edge="1" parent="1" source="24" target="17">
                    <mxGeometry relative="1" as="geometry">
                        <Array as="points">
                            <mxPoint x="-550" y="-638"/>
                        </Array>
                    </mxGeometry>
                </mxCell>
                <mxCell id="29" value="" style="edgeStyle=none;html=1;" edge="1" parent="1" source="24" target="28">
                    <mxGeometry relative="1" as="geometry"/>
                </mxCell>
                <mxCell id="24" value="단어가 올바른가?" style="rhombus;whiteSpace=wrap;html=1;comic=0;" vertex="1" parent="1">
                    <mxGeometry x="-602" y="-550.5" width="105" height="105" as="geometry"/>
                </mxCell>
                <mxCell id="27" value="Yes" style="text;html=1;strokeColor=none;fillColor=none;align=center;verticalAlign=middle;whiteSpace=wrap;comic=0;" vertex="1" parent="1">
                    <mxGeometry x="-633" y="-664" width="40" height="20" as="geometry"/>
                </mxCell>
                <mxCell id="33" value="" style="edgeStyle=none;html=1;" edge="1" parent="1" source="28" target="32">
                    <mxGeometry relative="1" as="geometry"/>
                </mxCell>
                <mxCell id="28" value="틀렸다고 표시한다." style="whiteSpace=wrap;html=1;comic=0;" vertex="1" parent="1">
                    <mxGeometry x="-424.5" y="-528" width="120" height="60" as="geometry"/>
                </mxCell>
                <mxCell id="32" value="게임 종료" style="whiteSpace=wrap;html=1;" vertex="1" parent="1">
                    <mxGeometry x="-232" y="-528" width="120" height="60" as="geometry"/>
                </mxCell>
                <mxCell id="34" value="No" style="text;html=1;strokeColor=none;fillColor=none;align=center;verticalAlign=middle;whiteSpace=wrap;comic=0;" vertex="1" parent="1">
                    <mxGeometry x="-484" y="-519" width="40" height="20" as="geometry"/>
                </mxCell>
                <mxCell id="39" style="edgeStyle=none;html=1;entryX=1;entryY=0.5;entryDx=0;entryDy=0;" edge="1" parent="1" source="35" target="14">
                    <mxGeometry relative="1" as="geometry">
                        <Array as="points">
                            <mxPoint x="-563" y="-937"/>
                        </Array>
                    </mxGeometry>
                </mxCell>
                <mxCell id="35" value="2명이상 가능하다고 알려준다." style="rounded=0;whiteSpace=wrap;html=1;comic=0;" vertex="1" parent="1">
                    <mxGeometry x="-623" y="-890" width="120" height="60" as="geometry"/>
                </mxCell>
            </root>
        </mxGraphModel>
    </diagram>
</mxfile>